<?xml version="1.0" encoding="iso-8859-1"?>
<!-- Generator: Adobe Illustrator 19.0.0, SVG Export Plug-In . SVG Version: 6.00 Build 0)  -->
<svg version="1.1" id="Capa_1" xmlns="http://www.w3.org/2000/svg" xmlns:xlink="http://www.w3.org/1999/xlink" x="0px" y="0px"
	 viewBox="0 0 512 512" style="enable-background:new 0 0 512 512;" xml:space="preserve">
<g>
	<g>
		<path d="M361,242c-74.443,0-135,60.557-135,135s60.557,135,135,135s135-60.557,135-135S435.443,242,361,242z M436,392h-60v60h-30
			v-60h-60v-30h60v-60h30v60h60V392z"/>
	</g>
</g>
<g>
	<g>
		<rect x="196" width="90" height="152"/>
	</g>
</g>
<g>
	<g>
		<path d="M316,0v182H166V0H16v452h198.215C202.656,429.467,196,404.017,196,377c0-90.981,74.019-165,165-165
			c39.855,0,76.452,14.209,105,37.82V0H316z M166,392H76v-30h90V392z"/>
	</g>
</g>
<g>
</g>
<g>
</g>
<g>
</g>
<g>
</g>
<g>
</g>
<g>
</g>
<g>
</g>
<g>
</g>
<g>
</g>
<g>
</g>
<g>
</g>
<g>
</g>
<g>
</g>
<g>
</g>
<g>
</g>
</svg>
