<svg
    xmlns="http://www.w3.org/2000/svg"
    viewBox="0 0 512 512"
    id="vector">
    <path
        id="path"
        d="M 497 147 C 488.716 147 482 140.284 482 132 L 482 84 L 434.004 84 C 425.72 84 419.004 77.284 419.004 69 C 419.004 60.716 425.72 54 434.004 54 L 497 54 C 505.284 54 512 60.716 512 69 L 512 132 C 512 140.284 505.284 147 497 147 Z"
        fill="#ff6659"/>
    <path
        id="path_1"
        d="M 77.996 458 L 15 458 C 6.716 458 0 451.284 0 443 L 0 380 C 0 371.716 6.716 365 15 365 C 23.284 365 30 371.716 30 380 L 30 428 L 77.996 428 C 86.28 428 92.996 434.716 92.996 443 C 92.996 451.284 86.28 458 77.996 458 Z"
        fill="#ff6659"/>
    <path
        id="path_2"
        d="M 497 458 L 434.004 458 C 425.72 458 419.004 451.284 419.004 443 C 419.004 434.716 425.72 428 434.004 428 L 482 428 L 482 380 C 482 371.716 488.716 365 497 365 C 505.284 365 512 371.716 512 380 L 512 443 C 512 451.284 505.284 458 497 458 Z"
        fill="#ff6659"/>
    <path
        id="path_3"
        d="M 15.004 147 C 6.72 147 0.004 140.284 0.004 132 L 0.004 69 C 0.004 60.716 6.72 54 15.004 54 L 78 54 C 86.284 54 93 60.716 93 69 C 93 77.284 86.284 84 78 84 L 30.004 84 L 30.004 132 C 30.004 140.284 23.288 147 15.004 147 Z"
        fill="#ff6659"/>
    <path
        id="path_4"
        d="M 329.001 131 L 359.002 131 L 359.002 196 L 329.001 196 Z"
        fill="#ff6659"/>
    <path
        id="path_5"
        d="M 452 146 C 452 137.716 445.284 131 437 131 L 389.002 131 L 389.002 196 L 452 196 L 452 146 Z"
        fill="#ff6659"/>
    <path
        id="path_6"
        d="M 269.001 131 L 299.001 131 L 299.001 196 L 269.001 196 Z"
        fill="#ff6659"/>
    <path
        id="path_7"
        d="M 119.001 131 L 74 131 C 65.716 131 59 137.716 59 146 L 59 196 L 119.001 196 L 119.001 131 Z"
        fill="#ff6659"/>
    <path
        id="path_8"
        d="M 209.001 131 L 239.001 131 L 239.001 196 L 209.001 196 Z"
        fill="#ff6659"/>
    <path
        id="path_9"
        d="M 149.001 131 L 179.001 131 L 179.001 196 L 149.001 196 Z"
        fill="#ff6659"/>
    <path
        id="path_10"
        d="M 481.5 226 L 30.5 226 C 22.216 226 15.5 232.716 15.5 241 C 15.5 249.284 22.216 256 30.5 256 L 59 256 L 59 366 C 59 374.284 65.716 381 74 381 L 437 381 C 445.284 381 452 374.284 452 366 L 452 256 L 481.5 256 C 489.784 256 496.5 249.284 496.5 241 C 496.5 232.716 489.784 226 481.5 226 Z M 134.001 336.139 C 125.717 336.139 119.001 329.423 119.001 321.139 L 119.001 256 L 149.001 256 L 149.001 321.139 C 149.001 329.423 142.285 336.139 134.001 336.139 Z M 209.001 322 C 209.001 330.284 202.285 337 194.001 337 C 185.717 337 179.001 330.284 179.001 322 L 179.001 317.95 C 179.001 309.666 185.717 302.95 194.001 302.95 C 202.285 302.95 209.001 309.666 209.001 317.95 L 209.001 322 Z M 194.001 282 C 185.717 282 179.001 275.284 179.001 267 L 179.001 256 L 209.001 256 L 209.001 267 C 209.001 275.284 202.285 282 194.001 282 Z M 269.001 322 C 269.001 330.284 262.285 337 254.001 337 C 245.717 337 239.001 330.284 239.001 322 L 239.001 317.95 C 239.001 309.666 245.717 302.95 254.001 302.95 C 262.285 302.95 269.001 309.666 269.001 317.95 L 269.001 322 Z M 254.001 282 C 245.717 282 239.001 275.284 239.001 267 L 239.001 256 L 269.001 256 L 269.001 267 C 269.001 275.284 262.285 282 254.001 282 Z M 329 322 C 329 330.284 322.284 337 314 337 C 305.716 337 299 330.284 299 322 L 299 317.95 C 299 309.666 305.716 302.95 314 302.95 C 322.284 302.95 329 309.666 329 317.95 L 329 322 Z M 314 282 C 305.716 282 299 275.284 299 267 L 299 256 L 329 256 L 329 267 C 329 275.284 322.284 282 314 282 Z M 389.001 321.139 C 389.001 329.423 382.285 336.139 374.001 336.139 C 365.717 336.139 359.001 329.423 359.001 321.139 L 359.001 256 L 389.001 256 L 389.001 321.139 Z"
        fill="#ff6659"/>
</svg>
