<?xml version="1.0"?>
<svg xmlns="http://www.w3.org/2000/svg" xmlns:xlink="http://www.w3.org/1999/xlink" version="1.1" id="Capa_1" x="0px" y="0px" viewBox="0 0 512 512" style="enable-background:new 0 0 512 512;" xml:space="preserve" width="512px" height="512px" class=""><g><script xmlns="" id="tinyhippos-injected" class="active-path" style=""/><g>
	<path d="M497,147c-8.284,0-15-6.716-15-15V84h-47.996c-8.284,0-15-6.716-15-15s6.716-15,15-15H497c8.284,0,15,6.716,15,15v63   C512,140.284,505.284,147,497,147z" data-original="#000000" class="active-path" fill="#FFFFFF"/>
</g><g>
	<path d="M77.996,458H15c-8.284,0-15-6.716-15-15v-63c0-8.284,6.716-15,15-15s15,6.716,15,15v48h47.996c8.284,0,15,6.716,15,15   S86.28,458,77.996,458z" data-original="#000000" class="active-path" fill="#FFFFFF"/>
</g><g>
	<path d="M497,458h-62.996c-8.284,0-15-6.716-15-15s6.716-15,15-15H482v-48c0-8.284,6.716-15,15-15s15,6.716,15,15v63   C512,451.284,505.284,458,497,458z" data-original="#000000" class="active-path" fill="#FFFFFF"/>
</g><g>
	<path d="M15.004,147c-8.284,0-15-6.716-15-15V69c0-8.284,6.716-15,15-15H78c8.284,0,15,6.716,15,15s-6.716,15-15,15H30.004v48   C30.004,140.284,23.288,147,15.004,147z" data-original="#000000" class="active-path" fill="#FFFFFF"/>
</g><g>
	<rect x="329.001" y="131" width="30.001" height="65" data-original="#000000" class="active-path" fill="#FFFFFF"/>
	<path d="M452,146c0-8.284-6.716-15-15-15h-47.998l0,65H452V146z" data-original="#000000" class="active-path" fill="#FFFFFF"/>
	<rect x="269.001" y="131" width="30" height="65" data-original="#000000" class="active-path" fill="#FFFFFF"/>
	<path d="M119.001,131H74c-8.284,0-15,6.716-15,15v50h60.001V131z" data-original="#000000" class="active-path" fill="#FFFFFF"/>
	<rect x="209.001" y="131" width="30" height="65" data-original="#000000" class="active-path" fill="#FFFFFF"/>
	<rect x="149.001" y="131" width="30" height="65" data-original="#000000" class="active-path" fill="#FFFFFF"/>
	<path d="M481.5,226h-451c-8.284,0-15,6.716-15,15s6.716,15,15,15H59v110c0,8.284,6.716,15,15,15h363c8.284,0,15-6.716,15-15V256   h29.5c8.284,0,15-6.716,15-15S489.784,226,481.5,226z M134.001,336.139c-8.284,0-15-6.716-15-15V256h30v65.139   C149.001,329.423,142.285,336.139,134.001,336.139z M209.001,322c0,8.284-6.716,15-15,15s-15-6.716-15-15v-4.05   c0-8.284,6.716-15,15-15s15,6.716,15,15V322z M194.001,282c-8.284,0-15-6.716-15-15v-11h30v11   C209.001,275.284,202.285,282,194.001,282z M269.001,322c0,8.284-6.716,15-15,15s-15-6.716-15-15v-4.05c0-8.284,6.716-15,15-15   s15,6.716,15,15V322z M254.001,282c-8.284,0-15-6.716-15-15v-11h30v11C269.001,275.284,262.285,282,254.001,282z M329,322   c0,8.284-6.716,15-15,15s-15-6.716-15-15v-4.05c0-8.284,6.716-15,15-15s15,6.716,15,15V322z M314,282c-8.284,0-15-6.716-15-15v-11   h30v11C329,275.284,322.284,282,314,282z M389.001,321.139c0,8.284-6.716,15-15,15s-15-6.716-15-15l0-65.139h30L389.001,321.139z" data-original="#000000" class="active-path" fill="#FFFFFF"/>
</g></g> </svg>
