<?xml version="1.0" encoding="iso-8859-1"?>
<!-- Generator: Adobe Illustrator 18.1.1, SVG Export Plug-In . SVG Version: 6.00 Build 0)  -->
<svg version="1.1" id="Capa_1" xmlns="http://www.w3.org/2000/svg" xmlns:xlink="http://www.w3.org/1999/xlink" x="0px" y="0px"
	 viewBox="0 0 459.833 459.833" style="enable-background:new 0 0 459.833 459.833;" xml:space="preserve">
<g>
	<g>
		<rect x="341.733" y="0" style="fill:#010002;" width="53.486" height="260.862"/>
		<path style="fill:#010002;" d="M83.228,0v227.242c-9.519,0.854-18.517,3.447-26.743,7.413V0H11.128v341.091h9.941
			c8.291,15.851,21.833,28.507,38.351,35.619v52.283c0,17.038,13.81,30.84,30.84,30.84c17.037,0,30.84-13.81,30.84-30.84v-52.291
			c27.783-11.965,47.243-39.57,47.243-71.735c0-16.371-5.056-31.555-13.672-44.114h8.779V0h-26.743v242.313
			c-7.909-5.869-16.94-10.258-26.743-12.819V0H83.228z M131.049,265.17c5.788,5.788,10.063,12.51,12.876,19.671
			c1.105,2.821,1.959,5.714,2.609,8.649c0.219,0.992,0.406,1.991,0.577,2.991c1.04,6.267,1.04,12.672,0,18.94
			c-0.008,0.057-0.016,0.114-0.024,0.171c-0.471,2.788-1.146,5.544-2.032,8.251c-2.723,8.364-7.356,16.249-14.006,22.898
			c-3.073,3.073-6.422,5.69-9.949,7.925c-18.777,11.908-42.903,11.908-61.688,0c-3.52-2.235-6.877-4.853-9.949-7.925
			c-1.796-1.796-3.39-3.707-4.902-5.657c-17.428-22.622-15.834-55.185,4.902-75.913c2.203-2.203,4.568-4.121,7.015-5.893
			c8.064-5.844,17.273-9.364,26.743-10.518c8.982-1.097,18.143-0.081,26.743,3.04C117.661,254.587,124.887,259.001,131.049,265.17z"
			/>
		<rect x="421.962" y="0" style="fill:#010002;" width="26.743" height="341.091"/>
		<rect x="190.672" y="0" style="fill:#010002;" width="83.082" height="260.862"/>
		<rect x="297.644" y="0" style="fill:#010002;" width="19.582" height="260.862"/>
		<path style="fill:#010002;" d="M191.103,312.34c-1.366,2.439-2.04,5.17-2.04,8.177c0,4.511,1.544,8.356,4.633,11.518
			c3.081,3.17,7.625,4.755,13.623,4.755c5.999,0,10.665-1.585,14.014-4.755c3.341-3.17,5.015-7.007,5.015-11.518
			c0-3.008-0.667-5.731-2.008-8.177c-1.341-2.439-3.333-4.406-5.983-5.885c2.593-1.479,4.276-3.227,5.048-5.235
			c0.78-2.008,1.162-3.894,1.162-5.641c0-3.894-1.471-7.218-4.414-9.966c-2.943-2.747-7.088-4.121-12.453-4.121
			c-5.365,0-9.519,1.374-12.453,4.121s-4.414,6.072-4.414,9.966c0,1.748,0.39,3.633,1.171,5.641c0.78,2.008,2.471,3.877,5.072,5.601
			C194.452,308.065,192.46,309.902,191.103,312.34z M202.735,291.8c1.203-1.195,2.861-1.796,4.991-1.796
			c2.154,0,3.812,0.602,4.991,1.796c1.171,1.195,1.764,2.853,1.764,4.975c0,1.951-0.585,3.536-1.764,4.771
			c-1.171,1.236-2.837,1.853-4.991,1.853c-2.13,0-3.788-0.618-4.991-1.853s-1.796-2.821-1.796-4.771
			C200.93,294.653,201.532,292.995,202.735,291.8z M202.101,313.584c1.39-1.414,3.276-2.13,5.641-2.13s4.251,0.707,5.641,2.13
			c1.39,1.422,2.089,3.495,2.089,6.235c0,2.642-0.683,4.682-2.057,6.137c-1.366,1.455-3.26,2.178-5.674,2.178
			c-2.414,0-4.308-0.723-5.674-2.178c-1.366-1.455-2.057-3.503-2.057-6.137C200.004,317.079,200.703,314.999,202.101,313.584z"/>
		<path style="fill:#010002;" d="M274.876,335.385v-11.543h6.064v-8.251h-6.064v-33.506h-11.835l-19.712,32.547v9.21h21.232v11.543
			H274.876z M251.165,315.6l13.388-23.101V315.6H251.165z"/>
		<path style="fill:#010002;" d="M324.94,281.493c-7.186,0-12.185,2.674-14.997,8.023c-1.479,2.812-2.309,6.495-2.479,11.063h10.242
			c0.122-3.008,0.52-5.202,1.187-6.584c1.162-2.39,3.341-3.585,6.543-3.585c2.341,0,4.146,0.756,5.397,2.26
			c1.26,1.504,1.886,3.39,1.886,5.658c0,2.788-1.097,5.349-3.292,7.698c-1.431,1.504-4.576,3.991-9.429,7.47
			c-5.601,3.991-9.145,7.779-10.657,11.356c-1.553,3.178-2.382,6.698-2.479,10.543h36.733v-9.283h-23.41
			c0.667-1.105,1.488-2.081,2.463-2.918s2.78-2.195,5.422-4.072l4.227-2.999c3.56-2.512,6.113-4.796,7.673-6.844
			c2.374-3.081,3.56-6.609,3.56-10.575c0-5.178-1.683-9.34-5.04-12.485C335.133,283.07,330.614,281.493,324.94,281.493z"/>
		<path style="fill:#010002;" d="M380.401,289.889c2.292,0,4.007,0.837,5.145,2.512c0.667,1.032,1,1.983,1,2.845h10.502
			c-0.366-4.243-2.032-7.641-4.991-10.193c-2.959-2.552-6.926-3.829-11.908-3.829c-3.455,0-6.413,0.788-8.893,2.365
			s-4.479,3.666-6.007,6.251c-1.772,3.032-2.975,6.828-3.585,11.396c-0.341,2.56-0.52,5.893-0.52,9.99
			c0,6.982,1.244,12.672,3.739,17.086c3.203,5.649,8.185,8.47,14.94,8.47c6.292,0,10.925-1.91,13.908-5.731
			s4.479-8.234,4.479-13.241c0-5.032-1.52-9.161-4.568-12.388c-3.048-3.227-6.95-4.845-11.705-4.845
			c-2.219,0-4.194,0.358-5.918,1.073c-1.723,0.715-3.243,1.853-4.552,3.406c0.293-4.146,0.837-7.275,1.626-9.397
			C374.532,291.816,376.971,289.889,380.401,289.889z M374.817,310.642c1.382-1.081,2.975-1.626,4.771-1.626
			c2.219,0,4.097,0.829,5.625,2.495c1.528,1.666,2.292,4.064,2.292,7.194c0,2.812-0.675,5.097-2.016,6.861
			c-1.341,1.764-3.186,2.642-5.527,2.642c-2.39,0-4.365-0.91-5.918-2.739c-1.553-1.821-2.333-4.178-2.333-7.064
			C371.712,314.836,372.744,312.243,374.817,310.642z"/>
		<path style="fill:#010002;" d="M68.272,264.423c-5.194,4.853-7.787,10.722-7.787,17.598c0,3.089,0.683,6.413,2.065,9.957
			c0.48,1.236,1.227,2.43,2.097,3.601c1.626,2.203,3.861,4.3,6.861,6.291c-4.633,2.178-8.145,5.422-10.551,9.73
			c-0.683,1.219-1.04,2.569-1.528,3.869c-1.236,3.292-2.073,6.755-2.073,10.559c0,4.007,0.699,7.714,2.073,11.12
			c1.366,3.365,3.39,6.446,6.105,9.226c5.446,5.592,13.461,8.389,24.052,8.389s18.834-2.796,24.743-8.389
			c3.081-2.918,5.316-6.178,6.787-9.738c1.349-3.268,2.073-6.795,2.073-10.608c0-3.845-0.837-7.332-2.073-10.648
			c-0.471-1.268-0.813-2.593-1.471-3.788c-2.365-4.308-5.885-7.771-10.567-10.38c2.959-1.691,5.17-3.601,6.795-5.682
			c0.886-1.138,1.642-2.309,2.122-3.56c1.374-3.552,2.057-6.869,2.057-9.957c0-6.877-2.593-12.746-7.787-17.598
			c-1.512-1.414-3.26-2.56-5.137-3.56c-4.56-2.439-10.144-3.723-16.859-3.723c-2.504,0-4.828,0.195-7.031,0.528
			C77.091,258.611,72.092,260.846,68.272,264.423z M81.489,275.331c2.113-2.113,5.048-3.17,8.803-3.17
			c3.796,0,6.73,1.057,8.803,3.17c2.073,2.113,3.113,5.04,3.113,8.787c0,0.065-0.033,0.114-0.033,0.187
			c0,0.301-0.114,0.536-0.138,0.829c-0.203,2.951-1.097,5.471-2.943,7.413c-0.683,0.715-1.609,1.138-2.479,1.618
			c-1.772,0.975-3.78,1.65-6.332,1.65s-4.585-0.691-6.381-1.699c-0.845-0.471-1.748-0.87-2.43-1.569
			c-1.894-1.943-2.804-4.471-3.008-7.413c-0.016-0.293-0.138-0.52-0.138-0.821c0-0.065-0.033-0.114-0.033-0.187
			C78.311,280.371,79.367,277.436,81.489,275.331z M100.355,335.637c-2.414,2.569-5.755,3.853-10.023,3.853
			c-4.267,0-7.608-1.284-10.023-3.853c-0.301-0.317-0.406-0.797-0.667-1.146c-1.861-2.479-2.959-5.617-2.959-9.697
			c0-4.837,1.227-8.503,3.69-11.006s5.779-3.755,9.958-3.755s7.503,1.252,9.958,3.755c2.463,2.504,3.69,6.17,3.69,11.006
			c0,3.82-1.024,6.755-2.642,9.169C100.973,334.499,100.786,335.174,100.355,335.637z"/>
	</g>
</g>
<g>
</g>
<g>
</g>
<g>
</g>
<g>
</g>
<g>
</g>
<g>
</g>
<g>
</g>
<g>
</g>
<g>
</g>
<g>
</g>
<g>
</g>
<g>
</g>
<g>
</g>
<g>
</g>
<g>
</g>
</svg>
