<svg
    xmlns="http://www.w3.org/2000/svg"
    viewBox="0 0 486 486"
    id="vector">
    <path
        id="path"
        d="M 243 0 C 108.8 0 0 108.8 0 243 C 0 377.2 108.8 486 243 486 C 377.2 486 486 377.2 486 243 C 486 108.8 377.2 0 243 0 Z M 327.8 366.1 C 320.5 369.4 312.9 372.2 305.1 374.3 C 275.5 382.5 245.9 382.8 216.4 373.2 C 180.8 361.7 157.2 337.4 143.1 303.4 C 140.4 296.8 138.6 289.9 136.5 283 L 108.6 283 C 103.9 283 100.2 279.2 100.2 274.6 L 100.2 255.8 C 100.2 251.1 104 247.4 108.6 247.4 L 131.7 247.4 C 131.7 242.2 131.7 237.3 131.7 232.1 L 108.6 232.1 C 103.9 232.1 100.2 228.3 100.2 223.7 L 100.2 204.9 C 100.2 200.2 104 196.5 108.6 196.5 L 138 196.5 L 139 193.6 C 146.9 168.5 160.5 147 181.4 130.8 C 198 117.9 217.2 110.8 237.8 107.5 C 267.1 102.8 295.5 106.8 323 117.6 C 324.8 118.3 326.5 119.1 328.2 120.1 C 334.8 124 336.5 128.9 333.6 136 C 330.5 143.4 327.4 150.9 324 158.2 C 321.1 164.5 317.1 166.5 310.3 165 C 301 162.9 291.9 160 282.6 158.1 C 263 154.1 243.5 153.9 224.4 161.4 C 208 167.9 198 180.4 191.2 196 C 191.1 196.2 191.1 196.4 191.1 196.6 L 248.2 196.6 C 252.9 196.6 256.6 200.4 256.6 205 L 256.6 223.8 C 256.6 228.5 252.8 232.2 248.2 232.2 L 183 232.2 C 182.9 237.2 183 242.2 183 247.5 L 248.3 247.5 C 253 247.5 256.7 251.3 256.7 255.9 L 256.7 274.7 C 256.7 279.4 252.9 283.1 248.3 283.1 L 188.7 283.1 C 195.9 303.7 207.6 319.6 229.6 326.5 C 247.2 332 264.9 331.7 282.7 328 C 291.9 326.1 300.9 323.3 310.1 321.2 C 317.3 319.6 321.2 321.5 324.2 328.1 C 327.6 335.5 330.8 343 333.8 350.6 C 336.6 357.4 334.8 362.9 327.8 366.1 Z"
        fill="#3f51b5"/>
</svg>
