<svg height="448pt" viewBox="0 0 448 448" width="448pt" xmlns="http://www.w3.org/2000/svg"><path d="m152 32h16v32h-16zm0 0"/><path d="m320 32h16v32h-16zm0 0"/><path d="m152 240h16v32h-16zm0 0"/><path d="m440 0c-4.800781 0-8 3.199219-8 8v168h-64c4.800781 0 8-3.199219 8-8v-128c0-4.800781-3.199219-8-8-8h-16v48h-48v-48h-72v144h-16v-144h-32v48h-48v-48h-56c-4.800781 0-8 3.199219-8 8v128c0 4.800781 3.199219 8 8 8h-64v-168c0-4.800781-3.199219-8-8-8s-8 3.199219-8 8v432c0 4.800781 3.199219 8 8 8s8-3.199219 8-8v-40h416v40c0 4.800781 3.199219 8 8 8s8-3.199219 8-8v-432c0-4.800781-3.199219-8-8-8zm-72 384c4.800781 0 8-3.199219 8-8v-128c0-4.800781-3.199219-8-8-8h-16v48h-48v-48h-72v144h-16v-144h-32v48h-48v-48h-56c-4.800781 0-8 3.199219-8 8v128c0 4.800781 3.199219 8 8 8h-64v-192h416v192zm0 0"/><path d="m320 240h16v32h-16zm0 0"/></svg>