<svg
    xmlns="http://www.w3.org/2000/svg"
    viewBox="0 0 488 488"
    id="vector">
    <path
        id="path"
        d="M 473.072 374.558 L 269.379 202.051 C 277.817 183.941 282.663 163.822 282.663 142.531 C 282.663 64.481 219.376 1.205 141.332 1.205 C 63.287 1.205 0 64.48 0 142.531 C 0 220.58 63.287 283.857 141.332 283.857 C 167.08 283.857 191.157 276.857 211.956 264.818 L 270.914 314.753 L 253.531 335.282 C 238.358 353.199 240.589 380.021 258.503 395.196 C 266.482 401.963 276.249 405.267 285.953 405.267 C 298.012 405.267 310 400.163 318.416 390.235 L 335.8 369.705 L 353.245 384.484 L 325.773 416.926 C 310.6 434.839 312.833 461.662 330.745 476.835 C 338.736 483.601 348.491 486.907 358.195 486.907 C 370.256 486.907 382.253 481.795 390.658 471.868 L 418.131 439.43 C 426.121 446.198 435.877 449.502 445.581 449.502 C 457.64 449.502 469.637 444.398 478.045 434.464 C 493.217 416.552 490.985 389.731 473.072 374.558 Z M 107.612 155.535 C 83.286 155.535 63.556 135.81 63.556 111.479 C 63.556 87.142 83.285 67.418 107.612 67.418 C 131.95 67.418 151.678 87.142 151.678 111.479 C 151.679 135.81 131.95 155.535 107.612 155.535 Z"
        fill="#9a0007"/>
</svg>
