<svg
    xmlns="http://www.w3.org/2000/svg"
    viewBox="0 0 512 512"
    id="vector">
    <path
        id="path"
        d="M 255.999 64.005 M 191.999 64.005 C 191.956 50.464 196.212 37.253 204.15 26.282 C 212.089 15.312 223.308 7.14 236.183 2.947 C 249.059 -1.245 262.939 -1.245 275.815 2.947 C 288.69 7.14 299.909 15.312 307.848 26.282 C 315.786 37.253 320.042 50.464 319.999 64.005 C 319.999 80.972 313.252 97.262 301.254 109.26 C 289.256 121.258 272.966 128.005 255.999 128.005 C 239.032 128.005 222.742 121.258 210.744 109.26 C 198.746 97.262 191.999 80.972 191.999 64.005"
        fill="#ff6659"/>
    <path
        id="path_1"
        d="M 351.871 301.957 L 337.343 188.805 C 335.711 172.389 322.015 160.005 305.535 160.005 L 287.999 160.005 C 283.743 160.005 279.679 161.701 276.671 164.677 L 255.999 185.349 L 235.327 164.677 C 232.319 161.701 228.255 160.005 223.999 160.005 L 206.495 160.005 C 189.983 160.005 176.287 172.389 174.687 188.389 L 160.127 301.989 C 159.551 306.533 160.959 311.141 163.999 314.565 C 167.039 318.021 171.391 320.005 175.999 320.005 L 193.279 320.005 L 206.655 483.205 C 208.255 499.589 221.983 512.005 238.495 512.005 L 273.535 512.005 C 290.047 512.005 303.743 499.589 305.407 482.917 L 318.751 320.005 L 335.999 320.005 C 340.607 320.005 344.959 318.021 347.999 314.565 C 351.071 311.141 352.479 306.533 351.871 301.957 Z"
        fill="#ff6659"/>
    <path
        id="path_2"
        d="M 415.999 64.005 M 351.999 64.005 C 351.999 47.038 358.746 30.748 370.744 18.75 C 382.742 6.752 399.032 0.005 415.999 0.005 C 432.966 0.005 449.256 6.752 461.254 18.75 C 473.252 30.748 479.999 47.038 479.999 64.005 C 479.999 80.972 473.252 97.262 461.254 109.26 C 449.256 121.258 432.966 128.005 415.999 128.005 C 399.032 128.005 382.742 121.258 370.744 109.26 C 358.746 97.262 351.999 80.972 351.999 64.005"
        fill="#ff6659"/>
    <path
        id="path_3"
        d="M 95.999 0.005 C 60.703 0.005 31.999 28.709 31.999 64.005 C 31.999 99.301 60.703 128.005 95.999 128.005 C 131.263 128.005 159.999 99.301 159.999 64.005 C 159.999 28.709 131.263 0.005 95.999 0.005 Z"
        fill="#ff6659"/>
    <path
        id="path_4"
        d="M 511.871 301.957 L 497.343 188.837 C 495.711 172.389 482.047 160.005 465.535 160.005 L 447.999 160.005 C 443.743 160.005 439.679 161.701 436.671 164.677 L 415.999 185.349 L 395.327 164.677 C 392.319 161.701 388.255 160.005 384.031 160.005 L 366.495 160.005 C 364.511 160.005 362.719 160.709 360.831 161.061 C 364.959 168.357 368.191 176.261 369.151 185.125 L 383.647 297.893 C 385.439 311.621 381.151 325.445 371.935 335.845 C 367.583 340.837 362.015 344.357 356.063 347.109 L 366.687 451.205 C 368.319 467.621 382.015 480.005 398.527 480.005 L 433.567 480.005 C 450.079 480.005 463.775 467.589 465.439 450.917 L 478.751 320.005 L 495.999 320.005 C 500.607 320.005 504.959 318.021 507.999 314.565 C 511.071 311.141 512.479 306.533 511.871 301.957 Z"
        fill="#ff6659"/>
    <path
        id="path_5"
        d="M 139.967 335.685 C 130.879 325.413 126.655 311.621 128.383 297.957 L 142.943 184.325 C 143.775 175.813 146.911 168.133 150.911 161.029 C 149.119 160.709 147.423 160.005 145.535 160.005 L 127.999 160.005 C 123.743 160.005 119.679 161.701 116.671 164.677 L 95.999 185.349 L 75.327 164.677 C 72.319 161.701 68.255 160.005 64.031 160.005 L 46.494 160.005 C 29.982 160.005 16.286 172.389 14.686 188.389 L 0.126 301.989 C -0.45 306.533 0.958 311.141 3.998 314.565 C 7.038 318.021 11.422 320.005 15.998 320.005 L 33.278 320.005 L 46.654 451.205 C 48.254 467.589 61.982 480.005 78.494 480.005 L 113.534 480.005 C 130.046 480.005 143.742 467.589 145.406 450.917 L 156.03 347.077 C 150.047 344.293 144.447 340.741 139.967 335.685 Z"
        fill="#ff6659"/>
</svg>
