<?xml version="1.0" encoding="iso-8859-1"?>
<!-- Generator: Adobe Illustrator 19.0.0, SVG Export Plug-In . SVG Version: 6.00 Build 0)  -->
<svg version="1.1" id="Capa_1" xmlns="http://www.w3.org/2000/svg" xmlns:xlink="http://www.w3.org/1999/xlink" x="0px" y="0px"
	 viewBox="0 0 512 512" style="enable-background:new 0 0 512 512;" xml:space="preserve">
<g>
	<g>
		<path d="M511.975,256.489c0.005-0.163,0.025-0.323,0.025-0.487c0-68.38-26.629-132.668-74.981-181.019
			C388.668,26.629,324.381,0,256,0S123.332,26.629,74.981,74.981C26.629,123.332,0,187.62,0,256s26.629,132.668,74.981,181.019
			C123.333,485.371,187.619,512,256,512c0.164,0,0.323-0.019,0.486-0.024c0.171,0.006,0.342,0.024,0.514,0.024
			c0.494,0,0.989-0.026,1.481-0.075c0.224-0.022,0.442-0.064,0.665-0.096c0.263-0.038,0.526-0.068,0.788-0.12
			c0.254-0.05,0.5-0.12,0.75-0.183c0.225-0.057,0.451-0.106,0.675-0.173c0.245-0.074,0.481-0.166,0.722-0.252
			c0.222-0.08,0.445-0.153,0.665-0.243c0.225-0.093,0.441-0.203,0.661-0.306c0.224-0.106,0.45-0.206,0.671-0.323
			c0.211-0.113,0.412-0.242,0.619-0.365c0.214-0.128,0.432-0.25,0.641-0.389c0.229-0.153,0.444-0.323,0.665-0.488
			c0.172-0.129,0.348-0.248,0.515-0.385c0.384-0.315,0.754-0.648,1.104-0.998l239.982-239.982c0.351-0.35,0.683-0.72,0.998-1.104
			c0.139-0.169,0.259-0.347,0.389-0.52c0.163-0.219,0.331-0.433,0.483-0.659c0.141-0.211,0.263-0.429,0.392-0.646
			c0.122-0.204,0.25-0.403,0.362-0.614c0.118-0.221,0.218-0.449,0.325-0.675c0.103-0.218,0.212-0.432,0.304-0.656
			c0.091-0.22,0.164-0.444,0.244-0.668c0.086-0.239,0.177-0.474,0.251-0.72c0.067-0.222,0.116-0.448,0.173-0.673
			c0.063-0.25,0.133-0.497,0.184-0.753c0.051-0.257,0.081-0.516,0.118-0.776c0.033-0.225,0.075-0.447,0.098-0.677
			c0.047-0.477,0.071-0.956,0.072-1.435c0-0.015,0.002-0.029,0.002-0.044c0-0.015-0.002-0.029-0.002-0.044
			C511.997,256.802,511.98,256.646,511.975,256.489z M253.804,419.913c-88.382-1.71-159.755-74.128-159.755-162.912
			c0-89.852,73.1-162.951,162.952-162.951c88.783,0,161.201,71.373,162.911,159.755c-38.534,12.165-73.844,33.48-103.236,62.872
			C287.283,346.068,265.968,381.379,253.804,419.913z M275.497,457.262c7.968-44.975,29.437-86.382,62.41-119.355
			c32.973-32.973,74.38-54.44,119.355-62.409L275.497,457.262z M449.68,246.361c-5.542-101.478-89.842-182.336-192.679-182.336
			c-106.407,0-192.977,86.568-192.977,192.976c0,102.838,80.859,187.137,182.336,192.68c-1.954,10.469-3.259,21.112-3.897,31.883
			c-55.269-3.245-106.778-26.299-146.252-65.774C53.529,373.108,30.024,316.361,30.024,256S53.529,138.892,96.211,96.211
			C138.893,53.531,195.64,30.024,256,30.024s117.108,23.505,159.789,66.187c39.474,39.474,62.53,90.984,65.774,146.253
			C470.792,243.103,460.149,244.409,449.68,246.361z"/>
	</g>
</g>
<g>
	<g>
		<path d="M234.436,321.179l-57.003-57.005c-1.374-1.374-3.108-1.732-5.199-1.076c-2.093,0.658-4.094,1.942-6.006,3.854
			c-1.913,1.913-3.197,3.914-3.854,6.006c-0.658,2.093-0.298,3.824,1.076,5.198l30.475,30.475l-42.218-13.177
			c-4.72-1.492-8.111-1.985-10.173-1.479c-2.062,0.509-4.437,2.106-7.126,4.795c-1.914,1.914-3.182,3.931-3.81,6.05
			c-0.627,2.125-0.253,3.87,1.121,5.244l56.916,56.916c1.376,1.376,3.123,1.749,5.244,1.121c2.122-0.626,4.136-1.898,6.05-3.81
			c1.912-1.912,3.183-3.927,3.81-6.05c0.627-2.121,0.255-3.868-1.121-5.244l-30.475-30.475l48.043,13.984
			c3.882,1.135,7.737-0.21,11.561-4.034c1.912-1.912,3.183-3.927,3.81-6.05C236.185,324.301,235.813,322.555,234.436,321.179z"/>
	</g>
</g>
<g>
	<g>
		<path d="M287.767,272.868c-0.475-1.912-1.522-3.674-3.137-5.289c-1.731-1.731-3.569-2.82-5.511-3.271
			c-1.943-0.446-3.571-0.014-4.885,1.3l-24.021,24.022l-15.238-15.239l13.445-13.445c1.374-1.374,1.883-2.957,1.524-4.75
			c-0.359-1.792-1.224-3.375-2.6-4.751c-1.492-1.492-3.152-2.403-4.974-2.733c-1.823-0.326-3.393,0.165-4.706,1.479l-13.445,13.446
			l-15.148-15.149l24.022-24.021c1.314-1.314,1.748-2.94,1.301-4.884c-0.449-1.942-1.539-3.78-3.274-5.514
			c-1.612-1.612-3.375-2.657-5.287-3.135c-1.913-0.479-3.557-0.03-4.93,1.344l-31.909,31.909c-1.673,1.673-2.733,3.482-3.183,5.422
			c-0.447,1.945,0.016,3.601,1.39,4.975l56.916,56.916c1.376,1.376,3.032,1.839,4.975,1.39c1.943-0.446,3.749-1.509,5.422-3.183
			l31.909-31.909C287.797,276.424,288.246,274.781,287.767,272.868z"/>
	</g>
</g>
<g>
	<g>
		<path d="M351.944,204.032l-36.84-72.513c-0.24-0.478-0.566-0.925-0.986-1.344c-1.434-1.434-3.69-1.746-6.766-0.941
			c-3.078,0.809-5.693,2.285-7.843,4.437c-2.509,2.51-3.137,4.871-1.882,7.082l32.358,59.606l-37.377-23.216
			c-1.374-0.896-3.047-1.014-5.019-0.357c-1.973,0.657-3.765,1.792-5.378,3.406c-1.613,1.612-2.75,3.406-3.406,5.377
			c-0.658,1.974-0.538,3.647,0.358,5.02l23.215,37.377l-59.605-32.357c-2.212-1.254-4.572-0.629-7.082,1.882
			c-2.151,2.151-3.63,4.768-4.437,7.843c-0.807,3.078-0.493,5.333,0.941,6.766c0.419,0.42,0.865,0.748,1.344,0.986l72.513,36.84
			c1.971,1.016,4.226,1.062,6.767,0.134c2.54-0.926,4.914-2.494,7.126-4.706c2.211-2.213,3.78-4.588,4.706-7.129
			c0.926-2.538,0.822-4.735-0.313-6.586l-16.582-25.905l25.904,16.583c1.853,1.135,4.047,1.24,6.587,0.313
			c2.54-0.925,4.914-2.494,7.126-4.706c2.21-2.21,3.765-4.57,4.661-7.081C352.929,208.334,352.899,206.064,351.944,204.032z"/>
	</g>
</g>
<g>
</g>
<g>
</g>
<g>
</g>
<g>
</g>
<g>
</g>
<g>
</g>
<g>
</g>
<g>
</g>
<g>
</g>
<g>
</g>
<g>
</g>
<g>
</g>
<g>
</g>
<g>
</g>
<g>
</g>
</svg>
