<svg
    xmlns="http://www.w3.org/2000/svg"
    viewBox="0 0 489 489"
    id="vector">
    <path
        id="path"
        d="M 486.8 371.304 L 465 344.604 C 461.5 340.304 459.6 334.904 459.6 329.304 L 459.6 304.104 L 459.6 288.004 L 459.6 241.404 L 459.6 241.404 L 459.6 112.304 C 459.6 88.704 440.4 69.504 416.8 69.504 L 256.7 69.504 L 256.7 69.504 L 72.9 69.504 C 49.3 69.504 30.1 88.704 30.1 112.304 L 30.1 288.004 L 30.1 297.404 L 30.1 328.904 C 30.1 334.504 28.2 339.804 24.7 344.104 L 2.6 371.204 C 0.9 373.204 0 375.804 0 378.404 L 0 390.804 C 0 406.804 13 419.804 29 419.804 L 460.3 419.804 C 476.3 419.804 489.3 406.804 489.3 390.804 L 489.3 378.404 C 489.4 375.904 488.5 373.304 486.8 371.304 Z M 291.2 377.604 C 291.2 385.704 284.6 392.404 276.4 392.404 L 213.2 392.404 C 205.1 392.404 198.4 385.804 198.4 377.604 L 198.4 374.404 L 291.1 374.404 L 291.1 377.604 L 291.2 377.604 Z M 416.9 304.204 L 416.9 331.704 L 72.7 331.704 L 72.7 299.304 L 72.7 288.004 L 72.7 112.204 L 72.8 112.104 L 276 112.104 L 276 112.104 L 416.7 112.104 C 416.8 112.104 416.8 112.204 416.8 112.204 L 416.8 288.004 L 416.8 299.304 L 416.8 302.204 L 416.8 302.204 L 416.8 304.204 L 416.9 304.204 Z"
        fill="#ff6659"/>
    <path
        id="path_1"
        d="M 305.6 168.704 L 197.8 168.704 C 194.7 168.704 191.8 169.604 189.2 171.104 L 183.7 151.804 C 182.8 148.704 179.9 146.504 176.7 146.504 L 176.7 146.504 L 168.3 146.504 L 152.3 146.504 C 149.2 146.504 146.8 149.004 146.8 152.004 L 146.8 152.604 C 146.8 155.704 149.3 158.104 152.3 158.104 L 173.3 158.104 L 184 195.904 L 198.7 248.104 C 190.3 250.204 184.1 257.804 184.1 266.804 C 184.1 277.004 192.1 285.404 202.1 286.004 C 201.3 288.404 200.9 291.004 201.1 293.804 C 201.8 303.004 209.3 310.404 218.6 311.104 C 229.6 311.904 238.8 303.104 238.8 292.304 C 238.8 290.104 238.4 288.004 237.7 286.104 L 259.7 286.104 C 258.8 288.704 258.4 291.504 258.8 294.504 C 259.8 303.404 267.2 310.504 276.2 311.104 C 287.2 311.904 296.4 303.204 296.4 292.304 C 296.4 281.804 287.7 273.404 277.2 273.404 L 203.5 273.404 C 199.9 273.404 196.9 270.604 196.7 267.004 C 196.6 263.204 199.6 260.104 203.3 260.104 L 214.4 260.104 L 274.3 260.104 L 291.2 260.104 C 298.7 260.104 305.2 255.004 307 247.704 L 321.6 188.704 C 322.8 183.704 321.7 178.504 318.4 174.504 C 315.4 170.804 310.6 168.704 305.6 168.704 Z M 277.5 286.104 C 280.9 286.104 283.7 288.904 283.7 292.304 C 283.7 295.704 280.9 298.504 277.5 298.504 C 274.1 298.504 271.3 295.704 271.3 292.304 C 271.3 288.904 274.1 286.104 277.5 286.104 Z M 219.9 286.104 C 223.3 286.104 226.1 288.904 226.1 292.304 C 226.1 295.704 223.3 298.504 219.9 298.504 C 216.5 298.504 213.7 295.704 213.7 292.304 C 213.7 288.904 216.4 286.104 219.9 286.104 Z M 197.1 196.004 L 194.3 186.004 C 193.9 184.504 194.5 183.304 194.9 182.804 C 195.3 182.304 196.2 181.304 197.8 181.304 L 209.6 181.304 L 212.8 195.904 L 197.1 195.904 L 197.1 196.004 Z M 200.6 208.604 L 215.5 208.604 L 218.5 222.204 L 204.4 222.204 L 200.6 208.604 Z M 214.4 247.604 C 212.8 247.604 211.3 246.504 210.9 244.904 L 208 234.704 L 221.3 234.704 L 224.1 247.504 L 214.4 247.504 L 214.4 247.604 Z M 246 247.604 L 237.1 247.604 L 234.3 234.804 L 246 234.804 L 246 247.604 Z M 246 222.204 L 231.5 222.204 L 228.5 208.604 L 246 208.604 L 246 222.204 Z M 246 196.004 L 225.8 196.004 L 222.6 181.404 L 246.1 181.404 L 246.1 196.004 L 246 196.004 Z M 268.6 247.604 L 258.6 247.604 L 258.6 234.804 L 271.3 234.804 L 268.6 247.604 Z M 274 222.204 L 258.7 222.204 L 258.7 208.604 L 276.9 208.604 L 274 222.204 Z M 258.6 196.004 L 258.6 181.404 L 282.6 181.404 L 279.5 196.004 L 258.6 196.004 Z M 294.8 244.804 C 294.4 246.404 292.9 247.604 291.2 247.604 L 281.5 247.604 L 284.2 234.804 L 297.3 234.804 L 294.8 244.804 Z M 300.4 222.204 L 286.9 222.204 L 289.8 208.604 L 303.8 208.604 L 300.4 222.204 Z M 309.4 185.904 L 306.9 196.004 L 292.4 196.004 L 295.5 181.404 L 305.9 181.404 C 307.5 181.404 308.4 182.304 308.8 182.804 C 309.2 183.204 309.8 184.404 309.4 185.904 Z"
        fill="#ff6659"/>
</svg>
