<svg xmlns="http://www.w3.org/2000/svg" width="19.894" height="26.011" viewBox="0 0 19.894 26.011">
  <path id="finished" d="M4.044,25.811a3.988,3.988,0,0,1-2.966-1.346A4.321,4.321,0,0,1,.012,21.287L1.121,6.758A1.775,1.775,0,0,1,2.854,5.092H5.046v-.1A4.9,4.9,0,0,1,9.846,0a4.9,4.9,0,0,1,4.8,4.989v.1h2.19A1.775,1.775,0,0,1,18.569,6.76l1.109,14.525a4.322,4.322,0,0,1-1.065,3.179,3.99,3.99,0,0,1-2.967,1.346ZM2.572,6.876,1.462,21.4a2.729,2.729,0,0,0,.682,2.033,2.521,2.521,0,0,0,1.9.862h11.6a2.521,2.521,0,0,0,1.9-.862,2.728,2.728,0,0,0,.682-2.035L17.119,6.878a.29.29,0,0,0-.283-.275h-2.19V8.465a.728.728,0,1,1-1.455,0V6.6H6.5V8.465a.727.727,0,1,1-1.454,0V6.6H2.854A.289.289,0,0,0,2.572,6.876ZM6.5,4.989v.1h6.692v-.1A3.417,3.417,0,0,0,9.846,1.512,3.418,3.418,0,0,0,6.5,4.989Zm1.578,13.12-2.059-2.14a.908.908,0,0,1,0-1.249.829.829,0,0,1,1.2,0l1.459,1.516,3.793-3.943a.825.825,0,0,1,1.2,0,.907.907,0,0,1,0,1.249L9.279,18.109a.827.827,0,0,1-1.2,0Z" transform="translate(0.102 0.1)" fill="#727c8e" stroke="#727c8e" stroke-width="0.2"/>
</svg>
