<svg id="Layer_5" enable-background="new 0 0 64 64" height="512" viewBox="0 0 64 64" width="512" xmlns="http://www.w3.org/2000/svg"><path d="m56 29.659c-.468.534-1.174 1.341-2.503 1.341-1.33 0-2.036-.807-2.504-1.341-.436-.498-.61-.659-.999-.659-.388 0-.562.161-.996.658-.468.534-1.174 1.342-2.502 1.342s-2.034-.808-2.501-1.342c-.434-.497-.607-.658-.995-.658-.552 0-1 .449-1 1v.359c0 .21.064.411.187.582l4.327 6.059h6.971l4.329-6.06c.122-.17.186-.371.186-.581v-.359c0-.551-.448-1-1-1-.39 0-.563.161-1 .659z"/><path d="m7 39v10h10.001l-.001-10zm8.707 7.293-1.414 1.414-2.293-2.293-2.293 2.293-1.414-1.414 2.293-2.293-2.293-2.293 1.414-1.414 2.293 2.293 2.293-2.293 1.414 1.414-2.293 2.293z"/><path d="m32 7h-24c-.552 0-1 .449-1 1v8c0 .551.448 1 1 1h24c.552 0 1-.449 1-1v-8c0-.551-.448-1-1-1zm-21 4h-2v-2h2zm4 0h-2v-2h2zm4 0h-2v-2h2z"/><path d="m23 23v10h10.001l-.001-10zm8 6h-6v-2h6z"/><path d="m7 23v10h10.001l-.001-10zm8 6h-2v2h-2v-2h-2v-2h2v-2h2v2h2z"/><path d="m57.349 42.258-3.725-3.258h-7.248l-3.725 3.258c-2.32 2.031-3.651 4.965-3.651 8.048 0 5.897 4.797 10.694 10.693 10.694h.613c5.897 0 10.694-4.797 10.694-10.694 0-3.083-1.331-6.017-3.651-8.048zm-7.349 6.742c1.654 0 3 1.346 3 3v3h-2v2h-2v-2.184c-1.161-.414-2-1.514-2-2.816h2c0 .551.448 1 1 1h1v-1c0-.551-.448-1-1-1-1.654 0-3-1.346-3-3v-3h2v-2h2v2.184c1.161.414 2 1.514 2 2.816h-2c0-.551-.448-1-1-1h-1v1c0 .551.448 1 1 1z"/><path d="m23 39v10h10.001l-.001-10zm8 8h-6v-2h6zm0-4h-6v-2h6z"/><path d="m34 3h-28c-1.654 0-3 1.346-3 3v44c0 1.654 1.346 3 3 3h28c1.654 0 3-1.346 3-3v-44c0-1.654-1.346-3-3-3zm-15 46c0 1.103-.897 2-2 2h-10c-1.103 0-2-.897-2-2v-10c0-1.103.897-2 2-2h10c1.103 0 2 .897 2 2zm0-16c0 1.103-.897 2-2 2h-10c-1.103 0-2-.897-2-2v-10c0-1.103.897-2 2-2h10c1.103 0 2 .897 2 2zm16 16c0 1.103-.897 2-2 2h-10c-1.103 0-2-.897-2-2v-10c0-1.103.897-2 2-2h10c1.103 0 2 .897 2 2zm0-16c0 1.103-.897 2-2 2h-10c-1.103 0-2-.897-2-2v-10c0-1.103.897-2 2-2h10c1.103 0 2 .897 2 2zm0-17c0 1.654-1.346 3-3 3h-24c-1.654 0-3-1.346-3-3v-8c0-1.654 1.346-3 3-3h24c1.654 0 3 1.346 3 3z"/><path d="m43 27c1.328 0 2.034.808 2.501 1.342.435.497.607.658.995.658s.562-.161.996-.658c.333-.381.793-.896 1.508-1.163v-.363c-1.161-.414-2-1.514-2-2.816h2c0 .551.448 1 1 1h1v-1c0-.551-.448-1-1-1-1.654 0-3-1.346-3-3v-3h2v-2h2v2.184c1.161.414 2 1.514 2 2.816h-2c0-.551-.448-1-1-1h-1v1c0 .551.448 1 1 1 1.654 0 3 1.346 3 3v3h-2v.183c.709.268 1.165.779 1.497 1.158.437.498.61.659 1 .659.389 0 .562-.161.999-.659.468-.534 1.174-1.341 2.504-1.341.154 0 .302.023.45.045 1.014-1.489 1.55-3.219 1.55-5.045 0-4.962-4.037-9-9-9s-9 4.038-9 9c0 1.826.536 3.556 1.55 5.046.148-.023.296-.046.45-.046z"/></svg>