<svg
    xmlns="http://www.w3.org/2000/svg"
    viewBox="0 0 64 64"
    id="vector">
    <path
        id="path"
        d="M 53 36 C 54.591 36 56.118 35.367 57.243 34.243 C 58.367 33.118 59 31.591 59 30 C 59 28.409 58.367 26.882 57.243 25.757 C 56.118 24.633 54.591 24 53 24 C 51.409 24 49.882 24.633 48.757 25.757 C 47.633 26.882 47 28.409 47 30 C 47.002 31.59 47.635 33.116 48.759 34.241 C 49.884 35.365 51.41 35.998 53 36 Z M 49.707 29.293 L 52 31.586 L 56.293 27.293 L 57.707 28.707 L 52.707 33.707 C 52.52 33.894 52.265 34 52 34 C 51.735 34 51.48 33.894 51.293 33.707 L 48.293 30.707 Z"
        fill="#ff6659"/>
    <path
        id="path_1"
        d="M 16 12 L 17.586 12 L 19.293 10.293 C 19.48 10.106 19.735 10 20 10 L 28 10 C 28.265 10 28.52 10.106 28.707 10.293 L 30.414 12 L 32 12 C 32.265 12 32.52 11.895 32.707 11.707 C 32.895 11.52 33 11.265 33 11 L 33 4 L 15 4 L 15 11 C 15 11.265 15.105 11.52 15.293 11.707 C 15.48 11.895 15.735 12 16 12 Z M 18 6 L 30 6 L 30 8 L 18 8 Z"
        fill="#ff6659"/>
    <path
        id="path_2"
        d="M 44 30 L 44 39 L 57.691 39 L 57.105 36.854 C 55.481 37.832 53.561 38.201 51.691 37.894 C 49.82 37.587 48.119 36.624 46.893 35.178 C 45.668 33.732 44.996 31.896 45 30 Z"
        fill="#ff6659"/>
    <path
        id="path_3"
        d="M 16 20.414 L 13.707 22.707 C 13.52 22.894 13.265 23 13 23 C 12.735 23 12.48 22.894 12.293 22.707 L 10.293 20.707 L 11.707 19.293 L 13 20.586 L 15.586 18 L 10 18 L 10 24 L 16 24 Z"
        fill="#ff6659"/>
    <path
        id="path_4"
        d="M 5 8 L 5 54 L 26 54 L 26 40 C 26 39.911 26.012 39.823 26.035 39.737 L 29.035 28.737 C 29.093 28.525 29.218 28.338 29.393 28.205 C 29.567 28.072 29.781 28 30 28 L 43 28 L 43 8 L 35 8 L 35 11 C 35 11.527 34.861 12.044 34.598 12.5 C 34.335 12.956 33.956 13.335 33.5 13.598 C 33.044 13.861 32.527 14 32 14 L 30 14 C 29.735 14 29.48 13.894 29.293 13.707 L 27.586 12 L 20.414 12 L 18.707 13.707 C 18.52 13.894 18.265 14 18 14 L 16 14 C 15.205 14 14.441 13.684 13.879 13.121 C 13.316 12.559 13 11.795 13 11 L 13 8 Z M 33 26 L 25 26 L 25 24 L 33 24 Z M 21 19 L 33 19 L 33 21 L 21 21 Z M 21 24 L 23 24 L 23 26 L 21 26 Z M 8 29 L 10 29 L 10 31 L 8 31 Z M 8 34 L 18 34 L 18 36 L 8 36 Z M 12 31 L 12 29 L 18 29 L 18 31 Z M 8 44 L 10 44 L 10 46 L 8 46 Z M 12 51 L 8 51 L 8 49 L 12 49 Z M 20 51 L 14 51 L 14 49 L 20 49 Z M 20 46 L 12 46 L 12 44 L 20 44 Z M 20 41 L 8 41 L 8 39 L 20 39 Z M 17 16 C 17.161 16.003 17.319 16.047 17.46 16.126 L 18.293 15.293 L 19.707 16.707 L 18 18.414 L 18 25 C 18 25.265 17.895 25.52 17.707 25.707 C 17.52 25.895 17.265 26 17 26 L 9 26 C 8.735 26 8.48 25.895 8.293 25.707 C 8.105 25.52 8 25.265 8 25 L 8 17 C 8 16.735 8.105 16.48 8.293 16.293 C 8.48 16.105 8.735 16 9 16 Z"
        fill="#ff6659"/>
    <path
        id="path_5"
        d="M 32 52 L 36 52 L 36 54 L 32 54 Z"
        fill="#ff6659"/>
    <path
        id="path_6"
        d="M 39 45.131 L 40.445 44.168 C 40.637 44.04 40.868 43.982 41.098 44.005 C 41.328 44.028 41.544 44.13 41.707 44.293 L 43 45.586 L 44.293 44.293 C 44.456 44.13 44.672 44.028 44.902 44.005 C 45.132 43.982 45.363 44.04 45.555 44.168 L 47 45.131 L 47 41 L 39 41 Z"
        fill="#ff6659"/>
    <path
        id="path_7"
        d="M 42 30 L 30.764 30 L 28.309 39 L 42 39 L 42 30 Z"
        fill="#ff6659"/>
    <path
        id="path_8"
        d="M 58 41 L 49 41 L 49 47 C 49 47.242 48.912 47.477 48.752 47.659 C 48.592 47.842 48.371 47.96 48.131 47.992 C 47.891 48.023 47.647 47.967 47.445 47.832 L 45.127 46.287 L 43.707 47.707 C 43.52 47.894 43.265 48 43 48 C 42.735 48 42.48 47.894 42.293 47.707 L 40.873 46.287 L 38.555 47.832 C 38.353 47.967 38.109 48.023 37.869 47.992 C 37.629 47.96 37.408 47.842 37.248 47.659 C 37.088 47.477 37 47.242 37 47 L 37 41 L 28 41 L 28 58 L 58 58 Z M 38 55 C 38 55.265 37.895 55.52 37.707 55.707 C 37.52 55.895 37.265 56 37 56 L 31 56 C 30.735 56 30.48 55.895 30.293 55.707 C 30.105 55.52 30 55.265 30 55 L 30 51 C 30 50.735 30.105 50.48 30.293 50.293 C 30.48 50.105 30.735 50 31 50 L 37 50 C 37.265 50 37.52 50.105 37.707 50.293 C 37.895 50.48 38 50.735 38 51 Z"
        fill="#ff6659"/>
</svg>
