<svg
    xmlns="http://www.w3.org/2000/svg"
    viewBox="0 0 512 512"
    id="vector">
    <path
        id="path"
        d="M 169.289 271 L 349.289 271 C 357.582 271 364.289 264.289 364.289 256 L 364.289 75 C 364.289 66.711 357.582 60 349.289 60 L 304.289 60 L 304.289 45 C 304.289 20.187 284.101 0 259.289 0 C 234.477 0 214.289 20.188 214.289 45 L 214.289 60 L 169.289 60 C 161 60 154.289 66.711 154.289 75 L 154.289 256 C 154.289 264.289 161 271 169.289 271 Z M 244.289 45 C 244.289 36.723 251.027 30 259.289 30 C 267.551 30 274.289 36.723 274.289 45 L 274.289 60 L 244.289 60 Z M 244.289 45"
        fill="#ff6659"/>
    <path
        id="path_1"
        d="M 477.816 248.234 C 475.121 243.754 470.226 241 464.984 241 C 438.554 241 414.308 255.668 402.039 279.078 L 356.027 366.891 C 348.207 381.774 332.941 391 316.156 391 L 214.289 391 C 206 391 199.289 384.289 199.289 376 C 199.289 367.711 206 361 214.289 361 L 316.152 361 C 321.75 361 326.847 357.926 329.457 352.957 C 332.055 347.996 339.902 333.016 346.648 320.141 C 348.773 316.086 348.625 311.215 346.253 307.297 C 343.878 303.383 339.632 301 335.054 301 L 179.132 301 C 159.093 301 140.284 308.809 126.105 322.973 L 37.394 411.684 C 31.535 417.543 31.535 427.036 37.394 432.895 L 112.394 507.606 C 115.324 510.536 119.164 512.004 122.999 512.004 C 126.834 512.004 130.675 510.535 133.604 507.606 L 190.499 451.001 L 316.151 451.001 C 355.323 451.001 390.975 429.438 409.171 394.735 L 478.253 262.973 C 480.714 258.328 480.538 252.735 477.815 248.235 Z M 477.816 248.234"
        fill="#ff6659"/>
</svg>
