<?xml version="1.0" encoding="iso-8859-1"?>
<!-- Generator: Adobe Illustrator 21.0.0, SVG Export Plug-In . SVG Version: 6.00 Build 0)  -->
<svg version="1.1" id="Capa_1" xmlns="http://www.w3.org/2000/svg" xmlns:xlink="http://www.w3.org/1999/xlink" x="0px" y="0px"
	 viewBox="0 0 512 512" style="enable-background:new 0 0 512 512;" xml:space="preserve">
<g>
	<g>
		<rect x="256.83" y="45.02" width="50.06" height="60.05"/>
	</g>
</g>
<g>
	<g>
		<path d="M411.956,160.122V45.018h-75.06v90.048H226.832V45.018h-41.708v90.048H75.06V45.018H0v421.964h411.956V420.21
			c-71.706,0-130.044-58.338-130.044-130.044S340.25,160.122,411.956,160.122z M266.546,406.934H145.41v-30h121.136V406.934z"/>
	</g>
</g>
<g>
	<g>
		<rect x="105.06" y="45.02" width="50.06" height="60.05"/>
	</g>
</g>
<g>
	<g>
		<path d="M411.956,190.122c-55.164,0-100.044,44.879-100.044,100.044c0,55.165,44.88,100.044,100.044,100.044
			S512,345.331,512,290.166C512,235.001,467.12,190.122,411.956,190.122z M400.306,337.951l-42.451-42.452l21.213-21.213
			l21.238,21.238l42.538-42.537l21.213,21.213L400.306,337.951z"/>
	</g>
</g>
<g>
</g>
<g>
</g>
<g>
</g>
<g>
</g>
<g>
</g>
<g>
</g>
<g>
</g>
<g>
</g>
<g>
</g>
<g>
</g>
<g>
</g>
<g>
</g>
<g>
</g>
<g>
</g>
<g>
</g>
</svg>
