<svg
    xmlns="http://www.w3.org/2000/svg"
    viewBox="0 0 512 512"
    id="vector">
    <path
        id="path"
        d="M 51.2 51.2 L 102.4 51.2 L 102.4 102.4 L 51.2 102.4 Z"
        fill="#000000"/>
    <path
        id="path_1"
        d="M 358.4 0 L 358.4 25.6 L 332.8 25.6 L 332.8 51.2 L 358.4 51.2 L 358.4 153.6 L 384 153.6 L 384 179.2 L 358.4 179.2 L 358.4 204.8 L 384 204.8 L 409.6 204.8 L 409.6 153.6 L 486.4 153.6 L 486.4 179.2 L 512 179.2 L 512 153.6 L 512 0 L 358.4 0 Z M 486.4 128 L 384 128 L 384 25.6 L 486.4 25.6 L 486.4 128 Z"
        fill="#000000"/>
    <path
        id="path_2"
        d="M 409.6 51.2 L 460.8 51.2 L 460.8 102.4 L 409.6 102.4 Z"
        fill="#000000"/>
    <path
        id="path_3"
        d="M 51.2 409.6 L 102.4 409.6 L 102.4 460.8 L 51.2 460.8 Z"
        fill="#000000"/>
    <path
        id="path_4"
        d="M 358.4 358.4 L 384 358.4 L 384 384 L 358.4 384 Z"
        fill="#000000"/>
    <path
        id="path_5"
        d="M 230.4 486.4 L 256 486.4 L 256 512 L 230.4 512 Z"
        fill="#000000"/>
    <path
        id="path_6"
        d="M 256 384 L 281.6 384 L 281.6 409.6 L 256 409.6 Z"
        fill="#000000"/>
    <path
        id="path_7"
        d="M 256 435.2 L 281.6 435.2 L 281.6 460.8 L 256 460.8 Z"
        fill="#000000"/>
    <path
        id="path_8"
        d="M 486.4 307.2 L 512 307.2 L 512 332.8 L 486.4 332.8 Z"
        fill="#000000"/>
    <path
        id="path_9"
        d="M 0 307.2 L 25.6 307.2 L 25.6 332.8 L 0 332.8 Z"
        fill="#000000"/>
    <path
        id="path_10"
        d="M 0 179.2 L 25.6 179.2 L 25.6 204.8 L 0 204.8 Z"
        fill="#000000"/>
    <path
        id="path_11"
        d="M 281.6 25.6 L 281.6 51.2 L 230.4 51.2 L 230.4 76.8 L 307.2 76.8 L 307.2 51.2 L 307.2 25.6 Z"
        fill="#000000"/>
    <path
        id="path_12"
        d="M 486.4 204.8 L 486.4 230.4 L 435.2 230.4 L 435.2 256 L 358.4 256 L 358.4 230.4 L 332.8 230.4 L 332.8 256 L 281.6 256 L 281.6 281.6 L 358.4 281.6 L 358.4 307.2 L 307.2 307.2 L 281.6 307.2 L 281.6 281.6 L 256 281.6 L 256 307.2 L 230.4 307.2 L 230.4 281.6 L 204.8 281.6 L 204.8 307.2 L 179.2 307.2 L 179.2 332.8 L 230.4 332.8 L 230.4 358.4 L 256 358.4 L 256 332.8 L 307.2 332.8 L 307.2 358.4 L 281.6 358.4 L 281.6 384 L 307.2 384 L 307.2 435.2 L 332.8 435.2 L 332.8 460.8 L 358.4 460.8 L 358.4 435.2 L 435.2 435.2 L 435.2 384 L 460.8 384 L 460.8 358.4 L 435.2 358.4 L 435.2 307.2 L 384 307.2 L 384 281.6 L 435.2 281.6 L 435.2 307.2 L 460.8 307.2 L 460.8 281.6 L 486.4 281.6 L 486.4 256 L 512 256 L 512 230.4 L 512 204.8 L 486.4 204.8 Z M 409.6 332.8 L 409.6 409.6 L 332.8 409.6 L 332.8 332.8 L 409.6 332.8 Z"
        fill="#000000"/>
    <path
        id="path_13"
        d="M 332.8 153.6 L 307.2 153.6 L 307.2 179.2 L 281.6 179.2 L 281.6 204.8 L 281.6 230.4 L 307.2 230.4 L 307.2 204.8 L 332.8 204.8 L 332.8 179.2 L 358.4 179.2 L 358.4 153.6 Z"
        fill="#000000"/>
    <path
        id="path_14"
        d="M 281.6 486.4 L 332.8 486.4 L 332.8 512 L 281.6 512 Z"
        fill="#000000"/>
    <path
        id="path_15"
        d="M 204.8 25.6 L 230.4 25.6 L 230.4 51.2 L 204.8 51.2 Z"
        fill="#000000"/>
    <path
        id="path_16"
        d="M 409.6 204.8 L 435.2 204.8 L 435.2 230.4 L 409.6 230.4 Z"
        fill="#000000"/>
    <path
        id="path_17"
        d="M 435.2 179.2 L 460.8 179.2 L 460.8 204.8 L 435.2 204.8 Z"
        fill="#000000"/>
    <path
        id="path_18"
        d="M 102.4 307.2 L 128 307.2 L 128 332.8 L 102.4 332.8 Z"
        fill="#000000"/>
    <path
        id="path_19"
        d="M 153.6 486.4 L 153.6 384 L 179.2 384 L 179.2 358.4 L 179.2 332.8 L 153.6 332.8 L 153.6 358.4 L 76.8 358.4 L 76.8 332.8 L 51.2 332.8 L 25.6 332.8 L 25.6 358.4 L 0 358.4 L 0 512 L 153.6 512 L 204.8 512 L 204.8 486.4 L 153.6 486.4 Z M 128 486.4 L 25.6 486.4 L 25.6 384 L 128 384 L 128 486.4 Z"
        fill="#000000"/>
    <path
        id="path_20"
        d="M 153.6 153.6 L 179.2 153.6 L 179.2 179.2 L 153.6 179.2 Z"
        fill="#000000"/>
    <path
        id="path_21"
        d="M 179.2 0 L 153.6 0 L 0 0 L 0 153.6 L 25.6 153.6 L 25.6 179.2 L 51.2 179.2 L 51.2 153.6 L 76.8 153.6 L 76.8 179.2 L 102.4 179.2 L 102.4 153.6 L 153.6 153.6 L 153.6 102.4 L 179.2 102.4 L 179.2 76.8 L 153.6 76.8 L 153.6 25.6 L 179.2 25.6 L 204.8 25.6 L 204.8 0 L 179.2 0 Z M 128 128 L 25.6 128 L 25.6 25.6 L 128 25.6 L 128 128 Z"
        fill="#000000"/>
    <path
        id="path_22"
        d="M 307.2 76.8 L 332.8 76.8 L 332.8 102.4 L 307.2 102.4 Z"
        fill="#000000"/>
    <path
        id="path_23"
        d="M 256 0 L 281.6 0 L 281.6 25.6 L 256 25.6 Z"
        fill="#000000"/>
    <path
        id="path_24"
        d="M 307.2 153.6 L 307.2 128 L 281.6 128 L 281.6 102.4 L 256 102.4 L 256 128 L 204.8 128 L 204.8 102.4 L 179.2 102.4 L 179.2 128 L 179.2 153.6 L 204.8 153.6 L 204.8 204.8 L 128 204.8 L 128 179.2 L 102.4 179.2 L 102.4 204.8 L 25.6 204.8 L 25.6 230.4 L 76.8 230.4 L 76.8 256 L 0 256 L 0 281.6 L 76.8 281.6 L 76.8 307.2 L 102.4 307.2 L 102.4 281.6 L 128 281.6 L 128 307.2 L 153.6 307.2 L 153.6 281.6 L 204.8 281.6 L 204.8 256 L 179.2 256 L 179.2 230.4 L 204.8 230.4 L 230.4 230.4 L 230.4 256 L 256 256 L 281.6 256 L 281.6 230.4 L 256 230.4 L 256 204.8 L 230.4 204.8 L 230.4 153.6 L 307.2 153.6 Z M 153.6 256 L 102.4 256 L 102.4 230.4 L 153.6 230.4 L 153.6 256 Z"
        fill="#000000"/>
    <path
        id="path_25"
        d="M 230.4 409.6 L 230.4 384 L 230.4 358.4 L 204.8 358.4 L 204.8 384 L 179.2 384 L 179.2 409.6 L 204.8 409.6 L 204.8 435.2 L 179.2 435.2 L 179.2 460.8 L 230.4 460.8 L 230.4 435.2 L 256 435.2 L 256 409.6 Z"
        fill="#000000"/>
    <path
        id="path_26"
        d="M 460.8 460.8 L 460.8 435.2 L 435.2 435.2 L 435.2 460.8 L 358.4 460.8 L 358.4 486.4 L 409.6 486.4 L 409.6 512 L 435.2 512 L 435.2 486.4 L 486.4 486.4 L 486.4 512 L 512 512 L 512 486.4 L 512 460.8 Z"
        fill="#000000"/>
    <path
        id="path_27"
        d="M 486.4 358.4 L 486.4 384 L 460.8 384 L 460.8 409.6 L 512 409.6 L 512 384 L 512 358.4 Z"
        fill="#000000"/>
</svg>
