<svg height="512pt" viewBox="0 0 512 512" width="512pt" xmlns="http://www.w3.org/2000/svg">
    <path d="m10 147.503906h40c5.523438 0 10-4.476562 10-10v-77.503906h77.503906c5.523438 0 10-4.476562 10-10v-40c0-5.523438-4.476562-10-10-10h-127.503906c-5.523438 0-10 4.476562-10 10v127.503906c0 5.523438 4.476562 10 10 10zm10-127.503906h107.503906v20h-77.503906c-5.519531 0-10 4.476562-10 10v77.503906h-20zm0 0"/>
    <path d="m266.507812 60h77.503907v77.503906c0 5.523438 4.476562 10 10 10h40c5.523437 0 10-4.476562 10-10v-127.503906c0-5.523438-4.476563-10-10-10h-127.503907c-5.523437 0-10 4.476562-10 10v40c0 5.523438 4.476563 10 10 10zm10-40h107.503907v107.503906h-20v-77.503906c0-5.523438-4.480469-10-10-10h-77.503907zm0 0"/>
    <path d="m137.503906 344.011719h-77.503906v-77.503907c0-5.523437-4.476562-10-10-10h-40c-5.523438 0-10 4.476563-10 10v127.503907c0 5.523437 4.476562 10 10 10h127.503906c5.523438 0 10-4.476563 10-10v-40c0-5.523438-4.476562-10-10-10zm-10 40h-107.503906v-107.503907h20v77.503907c0 5.523437 4.480469 10 10 10h77.503906zm0 0"/>
    <path d="m138.003906 80.003906h-48c-5.523437 0-10 4.476563-10 10v48c0 5.523438 4.476563 10 10 10h48c5.523438 0 10-4.476562 10-10v-48c0-5.523437-4.476562-10-10-10zm-10 48h-28v-28h28zm0 0"/>
    <path d="m264.132812 148.003906h48.003907c5.523437 0 10-4.476562 10-10v-48c0-5.523437-4.476563-10-10-10h-48.003907c-5.519531 0-10 4.476563-10 10v48c0 5.523438 4.480469 10 10 10zm10.003907-48h28v28h-28zm0 0"/>
    <path d="m178.003906 100.003906h10c5.523438 0 10-4.476562 10-10 0-5.523437-4.476562-10-10-10h-10c-5.519531 0-10 4.476563-10 10 0 5.523438 4.480469 10 10 10zm0 0"/>
    <path d="m228.007812 99.503906c2.628907 0 5.210938-1.070312 7.066407-2.929687 1.863281-1.863281 2.933593-4.441407 2.933593-7.070313 0-2.632812-1.070312-5.210937-2.933593-7.070312-1.855469-1.859375-4.4375-2.929688-7.066407-2.929688-2.632812 0-5.210937 1.070313-7.070312 2.929688s-2.929688 4.4375-2.929688 7.070312c0 2.628906 1.066407 5.207032 2.929688 7.070313 1.859375 1.859375 4.4375 2.929687 7.070312 2.929687zm0 0"/>
    <path d="m178.003906 147.753906h50.003906c5.519532 0 10-4.476562 10-10 0-5.523437-4.480468-10-10-10h-50.003906c-5.519531 0-10 4.476563-10 10 0 5.523438 4.480469 10 10 10zm0 0"/>
    <path d="m138.003906 256.007812h-48c-5.523437 0-10 4.476563-10 10v48c0 5.523438 4.476563 10 10 10h48c5.523438 0 10-4.476562 10-10v-48c0-5.523437-4.476562-10-10-10zm-10 48h-28v-28h28zm0 0"/>
    <path d="m130.003906 175.003906c-5.523437 0-10 4.476563-10 10 0 5.523438 4.476563 10 10 10h56.25c5.523438 0 10-4.476562 10-10 0-5.523437-4.476562-10-10-10zm0 0"/>
    <path d="m82.933594 178.433594c-1.859375 1.863281-2.929688 4.441406-2.929688 7.070312 0 2.632813 1.066406 5.210938 2.929688 7.070313 1.859375 1.863281 4.4375 2.929687 7.070312 2.929687 2.628906 0 5.207032-1.066406 7.066406-2.929687 1.863282-1.859375 2.933594-4.4375 2.933594-7.070313 0-2.628906-1.070312-5.207031-2.933594-7.070312-1.859374-1.859375-4.4375-2.929688-7.066406-2.929688-2.632812 0-5.210937 1.070313-7.070312 2.929688zm0 0"/>
    <path d="m268.917969 260.789062c-5.523438 0-10 4.480469-10 10v56.003907c0 5.523437 4.476562 10 10 10h56c5.523437 0 10-4.476563 10-10v-56.003907c0-5.519531-4.476563-10-10-10zm46 56.003907h-36v-36h36zm0 0"/>
    <path d="m395.671875 273.085938c-1.503906-5.3125-7.023437-8.402344-12.347656-6.898438-5.3125 1.507812-8.398438 7.035156-6.894531 12.347656 7.25 25.605469.082031 53.183594-18.714844 71.976563-28.613282 28.617187-75.175782 28.617187-103.792969 0-28.617187-28.613281-28.617187-75.175781 0-103.792969 19.046875-19.050781 46.941406-26.128906 72.800781-18.472656 5.300782 1.566406 10.859375-1.457032 12.429688-6.75 1.566406-5.296875-1.457032-10.863282-6.75-12.429688-32.890625-9.734375-68.386719-.726562-92.625 23.507813-36.414063 36.417969-36.414063 95.667969 0 132.082031 18.210937 18.207031 42.125 27.3125 66.042968 27.3125 23.917969 0 47.832032-9.105469 66.039063-27.3125 23.914063-23.914062 33.039063-59.003906 23.8125-91.570312zm0 0"/>
    <path d="m364.789062 249.648438c2.632813 0 5.210938-1.070313 7.070313-2.929688 1.859375-1.863281 2.929687-4.441406 2.929687-7.070312 0-2.632813-1.066406-5.210938-2.929687-7.070313-1.859375-1.863281-4.4375-2.929687-7.070313-2.929687-2.628906 0-5.210937 1.066406-7.070312 2.929687-1.859375 1.859375-2.929688 4.4375-2.929688 7.070313 0 2.628906 1.070313 5.207031 2.929688 7.070312 1.859375 1.859375 4.441406 2.929688 7.070312 2.929688zm0 0"/>
    <path d="m501.820312 452.589844-83.230468-83.230469c13.058594-20.675781 20.625-45.144531 20.625-71.351563 0-73.890624-60.113282-134.003906-134.003906-134.003906-42.910157 0-81.171876 20.277344-105.714844 51.75h-109.492188c-5.523437 0-10 4.480469-10 10 0 5.523438 4.476563 10.003906 10 10.003906h96.574219c-9.808594 18.609376-15.371094 39.792969-15.371094 62.25 0 73.890626 60.113281 134.003907 134.003907 134.003907 22.449218 0 43.617187-5.554688 62.222656-15.351563l85.15625 85.160156c6.789062 6.785157 15.703125 10.175782 24.613281 10.175782 8.917969 0 17.832031-3.390625 24.617187-10.175782 13.574219-13.574218 13.574219-35.65625 0-49.230468zm-310.613281-154.582032c0-62.859374 51.144531-114.003906 114.003907-114.003906 62.863281 0 114.003906 51.144532 114.003906 114.003906 0 62.863282-51.140625 114.003907-114.003906 114.003907-62.859376 0-114.003907-51.140625-114.003907-114.003907zm215.339844 87.59375 19.742187 19.742188-20.941406 20.941406-20.542968-20.539062c7.96875-5.902344 15.261718-12.660156 21.742187-20.144532zm81.132813 102.074219c-5.773438 5.773438-15.167969 5.777344-20.945313 0l-47.246094-47.246093 20.945313-20.941407 47.246094 47.246094c5.773437 5.773437 5.773437 15.167969 0 20.941406zm0 0"/>
</svg>