<svg
    xmlns="http://www.w3.org/2000/svg"
    viewBox="0 0 512 512"
    id="vector">
    <path
        id="path"
        d="M 211 286 C 211 310.813 231.188 331 256 331 C 280.812 331 301 310.812 301 286 C 301 261.188 280.812 241 256 241 C 231.188 241 211 261.188 211 286 Z M 211 286"
        fill="#d32f2f"/>
    <path
        id="path_1"
        d="M 256 361 C 206.371 361 166 401.371 166 451 L 166 512 L 346 512 L 346 451 C 346 401.371 305.629 361 256 361 Z M 256 361"
        fill="#d32f2f"/>
    <path
        id="path_2"
        d="M 136 316 C 136 291.187 115.812 271 91 271 C 66.188 271 46 291.188 46 316 C 46 340.812 66.188 361 91 361 C 115.812 361 136 340.812 136 316 Z M 136 316"
        fill="#d32f2f"/>
    <path
        id="path_3"
        d="M 466 316 C 466 291.187 445.812 271 421 271 C 396.188 271 376 291.188 376 316 C 376 340.812 396.188 361 421 361 C 445.812 361 466 340.812 466 316 Z M 466 316"
        fill="#d32f2f"/>
    <path
        id="path_4"
        d="M 76 0 L 53.18 53.801 L 0 61.301 L 38.355 97.735 L 29.535 151.001 L 76 126.716 L 122.465 151.001 L 113.645 97.735 L 151 61.301 L 99.379 53.801 Z M 76 0"
        fill="#d32f2f"/>
    <path
        id="path_5"
        d="M 279.379 53.801 L 256 0 L 233.18 53.801 L 181 61.301 L 218.355 97.735 L 209.535 151.001 L 256 126.716 L 302.465 151.001 L 293.645 97.735 L 331 61.301 Z M 279.379 53.801"
        fill="#d32f2f"/>
    <path
        id="path_6"
        d="M 436 0 L 413.18 53.801 L 361 61.301 L 398.355 97.735 L 389.535 151.001 L 436 126.716 L 482.465 151.001 L 473.645 97.735 L 512 61.301 L 459.379 53.801 Z M 436 0"
        fill="#d32f2f"/>
    <path
        id="path_7"
        d="M 421 391 C 401.062 391 382.816 397.691 367.902 408.66 C 372.922 421.875 376 436.047 376 451 L 376 512 L 512 512 L 512 481 C 512 431.293 470.707 391 421 391 Z M 421 391"
        fill="#d32f2f"/>
    <path
        id="path_8"
        d="M 0 481 L 0 512 L 136 512 L 136 451 C 136 436.047 139.078 421.875 144.098 408.66 C 129.184 397.691 110.938 391 91 391 C 41.293 391 0 431.293 0 481 Z M 0 481"
        fill="#d32f2f"/>
</svg>
