<svg height="464pt" viewBox="-81 0 464 464.73706" width="464pt" xmlns="http://www.w3.org/2000/svg"><path d="m166.292969 208.964844-5.839844 21.441406h11.679687zm0 0"/><path d="m234.925781 394.40625h-163.371093c-1.753907.101562-3.46875-.546875-4.71875-1.78125-1.253907-1.234375-1.917969-2.941406-1.835938-4.699219v-179.019531l-64.632812 181.550781 209.777343 74.28125zm0 0"/><path d="m102.976562 45.125 11-13.949219c1.3125-1.707031 3.328126-2.722656 5.480469-2.769531h39.691407c-9.21875-11-19.640626-19.15625-29.941407-24.113281-10.707031-5.15625-20.011719-5.660157-25.527343-1.554688-5.515626 4.105469-7.613282 13.199219-5.753907 24.9375 1.007813 5.992188 2.703125 11.84375 5.050781 17.449219zm0 0"/><path d="m183.074219 95.714844c-4.578125 1.730468-8.339844 5.109375-10.550781 9.476562 2.027343-.351562 3.945312-1.15625 5.613281-2.355468 2.324219-1.824219 4.046875-4.304688 4.9375-7.121094zm0 0"/><path d="m302 98.480469-44.992188-56.074219h-134.167968l-12.972656 16.476562c2.292968 3.933594 4.796874 7.742188 7.5 11.40625 10.398437 13.976563 22.910156 24.949219 35.238281 30.882813 1.789062.867187 3.625 1.628906 5.5 2.292969 5.335937-16.292969 22.097656-25.941406 38.867187-22.371094 16.769532 3.570312 28.148438 19.207031 26.386719 36.261719-1.761719 17.054687-16.097656 30.035156-33.242187 30.101562-17.144532.066407-31.582032-12.804687-33.472657-29.847656-16.699219-4.78125-35.285156-18.539063-50.464843-38.941406-1.96875-2.648438-3.628907-5.316407-5.347657-8l-21.832031 27.8125v281.925781h223zm-100 99.140625c0-2.640625 3.378906-3.761719 6.5-3.761719 3.117188 0 6.5 1.121094 6.5 3.761719v43.785156h17.933594c2.398437 0 3.601562 2.777344 3.601562 5.5 0 2.71875-1.203125 5.5-3.601562 5.5h-25.28125c-2.71875 0-5.652344-1.34375-5.652344-3.902344zm-58.746094 48.722656 14.878906-48.800781c.878907-2.800781 4.480469-4.15625 8.160157-4.15625 3.679687 0 7.28125 1.367187 8.160156 4.167969l14.960937 48.816406c.085938.296875.140626.601562.160157.910156 0 2.957031-4.558594 5.179688-8 5.179688-2 0-3.601563-.566407-4.078125-2.246094l-2.722656-9.808594h-16.875l-2.71875 9.808594c-.480469 1.679687-2.082032 2.105468-4.082032 2.105468-3.4375 0-8-2.148437-8-5.109374.019532-.292969.074219-.585938.15625-.867188zm-49.601562-3.601562c0-2.71875 2.402344-6.71875 5.441406-6.71875 3.761719 0 6.160156 5.921874 13.601562 5.921874 3.675782 0 7.757813-1.441406 7.757813-5.28125 0-9.679687-25.359375-8-25.359375-26.722656 0-12 10.480469-16.558594 20.480469-16.558594 4.238281 0 15.917969.800782 15.917969 7.039063 0 2.160156-1.4375 6.5625-4.957032 6.5625-2.882812 0-4.402344-3.042969-10.960937-3.042969-5.683594 0-8 2.320313-8 4.800782 0 8 25.359375 6.480468 25.359375 26.640624 0 11.519532-8.398438 17.761719-20 17.761719-10.476563-.003906-19.277344-5.121093-19.277344-10.402343zm176.921875 114.664062h-161.296875c-3.867188 0-7-3.136719-7-7 0-3.867188 3.132812-7 7-7h161.296875c3.867187 0 7 3.132812 7 7 0 3.863281-3.132813 7-7 7zm0-38h-161.296875c-3.867188 0-7-3.136719-7-7 0-3.867188 3.132812-7 7-7h161.296875c3.867187 0 7 3.132812 7 7 0 3.863281-3.132813 7-7 7zm3.476562-101c2.402344 0 3.761719 2.019531 3.761719 4.578125 0 2.160156-1.121094 4.421875-3.761719 4.421875h-12.050781v14h21.492188c2.398437 0 3.761718 2.617188 3.761718 5.578125 0 2.5625-1.121094 5.421875-3.761718 5.421875h-28.480469c-2.71875 0-5.011719-1.34375-5.011719-3.902344v-50.800781c0-2.558594 2.292969-4.296875 5.011719-4.296875h28.480469c2.640624 0 3.761718 2.859375 3.761718 5.417969 0 2.960937-1.363281 5.582031-3.761718 5.582031h-21.492188v14zm0 0"/><path d="m189.921875 133.457031c9.285156.007813 17.285156-6.527343 19.132813-15.625 1.84375-9.09375-2.980469-18.230469-11.53125-21.839843-1.691407 7.742187-5.429688 13.90625-11.027344 18.074218-4.457032 3.246094-9.773438 5.109375-15.285156 5.347656 2.433593 8.3125 10.050781 14.03125 18.710937 14.042969zm0 0"/></svg>