<?xml version="1.0" encoding="iso-8859-1"?>
<!-- Generator: Adobe Illustrator 18.0.0, SVG Export Plug-In . SVG Version: 6.00 Build 0)  -->
<!DOCTYPE svg PUBLIC "-//W3C//DTD SVG 1.1//EN" "http://www.w3.org/Graphics/SVG/1.1/DTD/svg11.dtd">
<svg version="1.1" id="Capa_1" xmlns="http://www.w3.org/2000/svg" xmlns:xlink="http://www.w3.org/1999/xlink" x="0px" y="0px"
	 viewBox="0 0 297.562 297.562" style="enable-background:new 0 0 297.562 297.562;" xml:space="preserve">
<g>
	<path d="M234.24,136.933v-57.4h7.603c8.284,0,15-6.716,15-15V15c0-8.284-6.716-15-15-15H16.277c-8.284,0-15,6.716-15,15v49.533
		c0,8.284,6.716,15,15,15h7.604v151.234c0,8.284,6.716,15,15,15h100.392c-12.435-28.743-7.405-64.104,16.853-88.362
		C177.394,136.134,207.379,129.48,234.24,136.933z"/>
	<path d="M291.891,271.956c-10.446-10.446-30.669-30.669-34.862-34.862c9.812-18.845,6.822-42.676-8.978-58.477
		c-0.001,0-0.001,0-0.001,0c-19.493-19.494-51.215-19.498-70.71,0c-19.481,19.481-19.516,51.195,0,70.711
		c15.747,15.751,39.547,18.83,58.476,8.979c4.243,4.243,24.94,24.94,34.862,34.862c5.859,5.858,15.355,5.858,21.213,0
		C297.75,287.311,297.75,277.814,291.891,271.956z M198.553,228.115c-7.792-7.792-7.804-20.481,0-28.285
		c7.804-7.801,20.488-7.794,28.284,0h-0.001c7.793,7.793,7.803,20.482,0.001,28.285C219.04,235.913,206.353,235.913,198.553,228.115
		z"/>
</g>
<g>
</g>
<g>
</g>
<g>
</g>
<g>
</g>
<g>
</g>
<g>
</g>
<g>
</g>
<g>
</g>
<g>
</g>
<g>
</g>
<g>
</g>
<g>
</g>
<g>
</g>
<g>
</g>
<g>
</g>
</svg>
