<svg
    xmlns="http://www.w3.org/2000/svg"
    viewBox="0 0 297 297"
    id="vector">
    <path
        id="path"
        d="M 291.219 78.753 L 153.176 9.732 C 150.233 8.259 146.767 8.259 143.823 9.732 L 5.781 78.753 C 2.238 80.525 0 84.145 0 88.107 L 0 277.915 C 0 283.69 4.682 288.373 10.458 288.373 L 44.969 288.373 C 50.744 288.373 55.427 283.691 55.427 277.915 L 55.427 115.82 L 241.575 115.82 L 241.575 277.915 C 241.575 283.69 246.257 288.373 252.033 288.373 L 286.544 288.373 C 292.319 288.373 297.002 283.691 297.002 277.915 L 297.002 88.107 C 297 84.145 294.762 80.525 291.219 78.753 Z M 276.085 267.457 L 262.49 267.457 L 262.49 105.362 C 262.49 99.587 257.808 94.904 252.032 94.904 L 44.968 94.904 C 39.193 94.904 34.51 99.586 34.51 105.362 L 34.51 267.457 L 20.915 267.457 L 20.915 94.57 L 148.5 30.778 L 276.085 94.57 L 276.085 267.457 Z"
        fill="#ff6659"/>
    <path
        id="path_1"
        d="M 217.521 132.552 L 148.5 132.552 C 144.457 132.552 141.18 135.829 141.18 139.872 L 141.18 201.573 L 79.479 201.573 C 75.436 201.573 72.159 204.85 72.159 208.893 L 72.159 277.914 C 72.159 281.957 75.436 285.234 79.479 285.234 L 217.521 285.234 C 221.564 285.234 224.841 281.957 224.841 277.914 L 224.841 139.873 C 224.842 135.829 221.564 132.552 217.521 132.552 Z M 155.82 226.568 L 172.657 243.405 L 155.82 260.242 L 155.82 226.568 Z M 141.18 260.241 L 124.343 243.404 L 141.18 226.567 L 141.18 260.241 Z M 166.174 216.214 L 199.847 216.214 L 183.01 233.051 L 166.174 216.214 Z M 166.174 201.573 L 183.011 184.736 L 199.848 201.573 L 166.174 201.573 Z M 210.201 191.22 L 193.365 174.383 L 210.201 157.546 L 210.201 191.22 Z M 183.011 164.03 L 166.174 147.193 L 199.847 147.193 L 183.011 164.03 Z M 172.657 174.383 L 155.82 191.22 L 155.82 157.547 L 172.657 174.383 Z M 113.989 233.051 L 97.152 216.214 L 130.825 216.214 L 113.989 233.051 Z M 103.636 243.404 L 86.799 260.241 L 86.799 226.568 L 103.636 243.404 Z M 113.989 253.758 L 130.826 270.595 L 97.153 270.595 L 113.989 253.758 Z M 183.01 253.758 L 199.847 270.595 L 166.174 270.595 L 183.01 253.758 Z M 193.364 243.404 L 210.201 226.567 L 210.201 260.24 L 193.364 243.404 Z"
        fill="#ff6659"/>
</svg>
